<mxfile host="app.diagrams.net" modified="2023-09-03T11:11:43.926Z" agent="Mozilla/5.0 (Windows NT 10.0; Win64; x64) AppleWebKit/537.36 (KHTML, like Gecko) Chrome/116.0.0.0 Safari/537.36" etag="KfFYPAyNEeDCi8Eqj-xk" version="21.6.9" type="device">
  <diagram name="Page-1" id="j9_5jHRPM9X1IIA9Dd_-">
    <mxGraphModel dx="2012" dy="2995" grid="1" gridSize="10" guides="1" tooltips="1" connect="1" arrows="1" fold="1" page="1" pageScale="1" pageWidth="827" pageHeight="1169" math="1" shadow="0">
      <root>
        <mxCell id="0" />
        <mxCell id="1" parent="0" />
        <mxCell id="N61VOvYEneSoVH0488H6-196" value="&lt;span style=&quot;white-space: pre;&quot;&gt;&#x9;&lt;/span&gt;&lt;span style=&quot;white-space: pre;&quot;&gt;&#x9;&lt;/span&gt;Inhibition for right VF" style="rounded=1;whiteSpace=wrap;html=1;fillColor=#f8cecc;align=right;dashed=1;dashPattern=12 12;strokeColor=#b85450;" vertex="1" parent="1">
          <mxGeometry x="-310" y="-294" width="120" height="40" as="geometry" />
        </mxCell>
        <mxCell id="N61VOvYEneSoVH0488H6-195" value="Inhibition&lt;br&gt;for left VF" style="rounded=1;whiteSpace=wrap;html=1;fillColor=#f8cecc;align=left;dashed=1;dashPattern=12 12;strokeColor=#b85450;" vertex="1" parent="1">
          <mxGeometry x="-480" y="-379" width="120" height="40" as="geometry" />
        </mxCell>
        <mxCell id="N61VOvYEneSoVH0488H6-80" value="Right eye visual field&lt;br&gt;&lt;br&gt;" style="ellipse;whiteSpace=wrap;html=1;fillColor=#f8cecc;strokeColor=#b85450;rounded=1;" vertex="1" parent="1">
          <mxGeometry x="-153" y="-820" width="270" height="110" as="geometry" />
        </mxCell>
        <mxCell id="N61VOvYEneSoVH0488H6-1" value="ESTMD" style="rounded=1;whiteSpace=wrap;html=1;fontStyle=1" vertex="1" parent="1">
          <mxGeometry x="-140" y="-1240" width="120" height="30" as="geometry" />
        </mxCell>
        <mxCell id="N61VOvYEneSoVH0488H6-2" value="&lt;b&gt;Wide-field EMD&lt;/b&gt;&lt;br&gt;(&lt;svg style=&quot;vertical-align: -0.186ex;&quot; xmlns:xlink=&quot;http://www.w3.org/1999/xlink&quot; viewBox=&quot;0 -677 2850.6 759&quot; role=&quot;img&quot; height=&quot;1.717ex&quot; width=&quot;6.449ex&quot; xmlns=&quot;http://www.w3.org/2000/svg&quot;&gt;&lt;defs&gt;&lt;path d=&quot;M39 284Q18 284 18 294Q18 301 45 338T99 398Q134 425 164 429Q170 431 332 431Q492 431 497 429Q517 424 517 402Q517 388 508 376T485 360Q479 358 389 358T299 356Q298 355 283 274T251 109T233 20Q228 5 215 -4T186 -13Q153 -13 153 20V30L203 192Q214 228 227 272T248 336L254 357Q254 358 208 358Q206 358 197 358T183 359Q105 359 61 295Q56 287 53 286T39 284Z&quot; id=&quot;MJX-6-TEX-I-1D70F&quot;&gt;&lt;/path&gt;&lt;path d=&quot;M56 347Q56 360 70 367H707Q722 359 722 347Q722 336 708 328L390 327H72Q56 332 56 347ZM56 153Q56 168 72 173H708Q722 163 722 153Q722 140 707 133H70Q56 140 56 153Z&quot; id=&quot;MJX-6-TEX-N-3D&quot;&gt;&lt;/path&gt;&lt;path d=&quot;M462 0Q444 3 333 3Q217 3 199 0H190V46H221Q241 46 248 46T265 48T279 53T286 61Q287 63 287 115V165H28V211L179 442Q332 674 334 675Q336 677 355 677H373L379 671V211H471V165H379V114Q379 73 379 66T385 54Q393 47 442 46H471V0H462ZM293 211V545L74 212L183 211H293Z&quot; id=&quot;MJX-6-TEX-N-34&quot;&gt;&lt;/path&gt;&lt;path d=&quot;M96 585Q152 666 249 666Q297 666 345 640T423 548Q460 465 460 320Q460 165 417 83Q397 41 362 16T301 -15T250 -22Q224 -22 198 -16T137 16T82 83Q39 165 39 320Q39 494 96 585ZM321 597Q291 629 250 629Q208 629 178 597Q153 571 145 525T137 333Q137 175 145 125T181 46Q209 16 250 16Q290 16 318 46Q347 76 354 130T362 333Q362 478 354 524T321 597Z&quot; id=&quot;MJX-6-TEX-N-30&quot;&gt;&lt;/path&gt;&lt;/defs&gt;&lt;g transform=&quot;scale(1,-1)&quot; stroke-width=&quot;0&quot; fill=&quot;currentColor&quot; stroke=&quot;currentColor&quot;&gt;&lt;g data-mml-node=&quot;math&quot;&gt;&lt;g data-mml-node=&quot;mi&quot;&gt;&lt;use xlink:href=&quot;#MJX-6-TEX-I-1D70F&quot; data-c=&quot;1D70F&quot;&gt;&lt;/use&gt;&lt;/g&gt;&lt;g transform=&quot;translate(794.8,0)&quot; data-mml-node=&quot;mo&quot;&gt;&lt;use xlink:href=&quot;#MJX-6-TEX-N-3D&quot; data-c=&quot;3D&quot;&gt;&lt;/use&gt;&lt;/g&gt;&lt;g transform=&quot;translate(1850.6,0)&quot; data-mml-node=&quot;mn&quot;&gt;&lt;use xlink:href=&quot;#MJX-6-TEX-N-34&quot; data-c=&quot;34&quot;&gt;&lt;/use&gt;&lt;use transform=&quot;translate(500,0)&quot; xlink:href=&quot;#MJX-6-TEX-N-30&quot; data-c=&quot;30&quot;&gt;&lt;/use&gt;&lt;/g&gt;&lt;/g&gt;&lt;/g&gt;&lt;/svg&gt;&amp;nbsp;ms)&lt;br&gt;Directionally selective" style="rounded=1;whiteSpace=wrap;html=1;" vertex="1" parent="1">
          <mxGeometry x="-400" y="-1215" width="120" height="60" as="geometry" />
        </mxCell>
        <mxCell id="N61VOvYEneSoVH0488H6-3" value="Directionally selective ESTMD" style="rounded=1;whiteSpace=wrap;html=1;" vertex="1" parent="1">
          <mxGeometry x="-140" y="-1180" width="120" height="40" as="geometry" />
        </mxCell>
        <mxCell id="N61VOvYEneSoVH0488H6-4" value="" style="endArrow=classic;html=1;rounded=1;exitX=0.5;exitY=1;exitDx=0;exitDy=0;" edge="1" parent="1" source="N61VOvYEneSoVH0488H6-1" target="N61VOvYEneSoVH0488H6-3">
          <mxGeometry width="50" height="50" relative="1" as="geometry">
            <mxPoint x="50" y="-1010" as="sourcePoint" />
            <mxPoint x="100" y="-1060" as="targetPoint" />
          </mxGeometry>
        </mxCell>
        <mxCell id="N61VOvYEneSoVH0488H6-5" value="HW-R&lt;br&gt;&lt;font color=&quot;#0000ff&quot;&gt;ESTMD&lt;/font&gt;" style="rounded=1;whiteSpace=wrap;html=1;" vertex="1" parent="1">
          <mxGeometry x="-194" y="-1100" width="100" height="50" as="geometry" />
        </mxCell>
        <mxCell id="N61VOvYEneSoVH0488H6-6" value="HW-R&lt;br&gt;&lt;font color=&quot;#ff0000&quot;&gt;ESTMD&lt;/font&gt;" style="rounded=1;whiteSpace=wrap;html=1;" vertex="1" parent="1">
          <mxGeometry x="-68" y="-1100" width="100" height="50" as="geometry" />
        </mxCell>
        <mxCell id="N61VOvYEneSoVH0488H6-7" value="" style="endArrow=classic;html=1;rounded=1;exitX=0.5;exitY=1;exitDx=0;exitDy=0;entryX=0.5;entryY=0;entryDx=0;entryDy=0;" edge="1" parent="1" source="N61VOvYEneSoVH0488H6-3" target="N61VOvYEneSoVH0488H6-5">
          <mxGeometry width="50" height="50" relative="1" as="geometry">
            <mxPoint x="50" y="-1090" as="sourcePoint" />
            <mxPoint x="100" y="-1140" as="targetPoint" />
            <Array as="points">
              <mxPoint x="-80" y="-1120" />
              <mxPoint x="-144" y="-1120" />
            </Array>
          </mxGeometry>
        </mxCell>
        <mxCell id="N61VOvYEneSoVH0488H6-8" value="" style="endArrow=classic;html=1;rounded=1;exitX=0.5;exitY=1;exitDx=0;exitDy=0;entryX=0.5;entryY=0;entryDx=0;entryDy=0;" edge="1" parent="1" source="N61VOvYEneSoVH0488H6-3" target="N61VOvYEneSoVH0488H6-6">
          <mxGeometry width="50" height="50" relative="1" as="geometry">
            <mxPoint x="50" y="-1090" as="sourcePoint" />
            <mxPoint x="100" y="-1140" as="targetPoint" />
            <Array as="points">
              <mxPoint x="-80" y="-1120" />
              <mxPoint x="-18" y="-1120" />
            </Array>
          </mxGeometry>
        </mxCell>
        <mxCell id="N61VOvYEneSoVH0488H6-9" value="" style="shape=curlyBracket;whiteSpace=wrap;html=1;rounded=1;flipH=1;labelPosition=right;verticalLabelPosition=middle;align=left;verticalAlign=middle;" vertex="1" parent="1">
          <mxGeometry x="-7" y="-1180" width="20" height="40" as="geometry" />
        </mxCell>
        <mxCell id="N61VOvYEneSoVH0488H6-10" value="Low-pass filtered and then correlated (&lt;svg style=&quot;vertical-align: -0.186ex;&quot; xmlns:xlink=&quot;http://www.w3.org/1999/xlink&quot; viewBox=&quot;0 -677 2850.6 759&quot; role=&quot;img&quot; height=&quot;1.717ex&quot; width=&quot;6.449ex&quot; xmlns=&quot;http://www.w3.org/2000/svg&quot;&gt;&lt;defs&gt;&lt;path d=&quot;M39 284Q18 284 18 294Q18 301 45 338T99 398Q134 425 164 429Q170 431 332 431Q492 431 497 429Q517 424 517 402Q517 388 508 376T485 360Q479 358 389 358T299 356Q298 355 283 274T251 109T233 20Q228 5 215 -4T186 -13Q153 -13 153 20V30L203 192Q214 228 227 272T248 336L254 357Q254 358 208 358Q206 358 197 358T183 359Q105 359 61 295Q56 287 53 286T39 284Z&quot; id=&quot;MJX-6-TEX-I-1D70F&quot;&gt;&lt;/path&gt;&lt;path d=&quot;M56 347Q56 360 70 367H707Q722 359 722 347Q722 336 708 328L390 327H72Q56 332 56 347ZM56 153Q56 168 72 173H708Q722 163 722 153Q722 140 707 133H70Q56 140 56 153Z&quot; id=&quot;MJX-6-TEX-N-3D&quot;&gt;&lt;/path&gt;&lt;path d=&quot;M462 0Q444 3 333 3Q217 3 199 0H190V46H221Q241 46 248 46T265 48T279 53T286 61Q287 63 287 115V165H28V211L179 442Q332 674 334 675Q336 677 355 677H373L379 671V211H471V165H379V114Q379 73 379 66T385 54Q393 47 442 46H471V0H462ZM293 211V545L74 212L183 211H293Z&quot; id=&quot;MJX-6-TEX-N-34&quot;&gt;&lt;/path&gt;&lt;path d=&quot;M96 585Q152 666 249 666Q297 666 345 640T423 548Q460 465 460 320Q460 165 417 83Q397 41 362 16T301 -15T250 -22Q224 -22 198 -16T137 16T82 83Q39 165 39 320Q39 494 96 585ZM321 597Q291 629 250 629Q208 629 178 597Q153 571 145 525T137 333Q137 175 145 125T181 46Q209 16 250 16Q290 16 318 46Q347 76 354 130T362 333Q362 478 354 524T321 597Z&quot; id=&quot;MJX-6-TEX-N-30&quot;&gt;&lt;/path&gt;&lt;/defs&gt;&lt;g transform=&quot;scale(1,-1)&quot; stroke-width=&quot;0&quot; fill=&quot;currentColor&quot; stroke=&quot;currentColor&quot;&gt;&lt;g data-mml-node=&quot;math&quot;&gt;&lt;g data-mml-node=&quot;mi&quot;&gt;&lt;use xlink:href=&quot;#MJX-6-TEX-I-1D70F&quot; data-c=&quot;1D70F&quot;&gt;&lt;/use&gt;&lt;/g&gt;&lt;g transform=&quot;translate(794.8,0)&quot; data-mml-node=&quot;mo&quot;&gt;&lt;use xlink:href=&quot;#MJX-6-TEX-N-3D&quot; data-c=&quot;3D&quot;&gt;&lt;/use&gt;&lt;/g&gt;&lt;g transform=&quot;translate(1850.6,0)&quot; data-mml-node=&quot;mn&quot;&gt;&lt;use xlink:href=&quot;#MJX-6-TEX-N-34&quot; data-c=&quot;34&quot;&gt;&lt;/use&gt;&lt;use transform=&quot;translate(500,0)&quot; xlink:href=&quot;#MJX-6-TEX-N-30&quot; data-c=&quot;30&quot;&gt;&lt;/use&gt;&lt;/g&gt;&lt;/g&gt;&lt;/g&gt;&lt;/svg&gt;&amp;nbsp;ms)" style="text;html=1;strokeColor=none;fillColor=none;align=left;verticalAlign=middle;whiteSpace=wrap;rounded=1;" vertex="1" parent="1">
          <mxGeometry x="20" y="-1175" width="150" height="30" as="geometry" />
        </mxCell>
        <mxCell id="N61VOvYEneSoVH0488H6-11" value="HW-R&lt;br&gt;&lt;font color=&quot;#0000ff&quot;&gt;LPTC&lt;/font&gt;" style="rounded=1;whiteSpace=wrap;html=1;" vertex="1" parent="1">
          <mxGeometry x="-453" y="-1100" width="100" height="50" as="geometry" />
        </mxCell>
        <mxCell id="N61VOvYEneSoVH0488H6-12" value="HW-R&lt;br&gt;&lt;font color=&quot;#ff0000&quot;&gt;LPTC&lt;/font&gt;" style="rounded=1;whiteSpace=wrap;html=1;" vertex="1" parent="1">
          <mxGeometry x="-327" y="-1100" width="100" height="50" as="geometry" />
        </mxCell>
        <mxCell id="N61VOvYEneSoVH0488H6-13" value="" style="endArrow=classic;html=1;rounded=1;exitX=0.5;exitY=1;exitDx=0;exitDy=0;entryX=0.5;entryY=0;entryDx=0;entryDy=0;" edge="1" parent="1" source="N61VOvYEneSoVH0488H6-2" target="N61VOvYEneSoVH0488H6-11">
          <mxGeometry width="50" height="50" relative="1" as="geometry">
            <mxPoint x="-339" y="-1140" as="sourcePoint" />
            <mxPoint x="-159" y="-1140" as="targetPoint" />
            <Array as="points">
              <mxPoint x="-340" y="-1120" />
              <mxPoint x="-403" y="-1120" />
            </Array>
          </mxGeometry>
        </mxCell>
        <mxCell id="N61VOvYEneSoVH0488H6-14" value="" style="endArrow=classic;html=1;rounded=1;exitX=0.5;exitY=1;exitDx=0;exitDy=0;entryX=0.5;entryY=0;entryDx=0;entryDy=0;" edge="1" parent="1" source="N61VOvYEneSoVH0488H6-2" target="N61VOvYEneSoVH0488H6-12">
          <mxGeometry width="50" height="50" relative="1" as="geometry">
            <mxPoint x="-340" y="-1130" as="sourcePoint" />
            <mxPoint x="-290" y="-1180" as="targetPoint" />
            <Array as="points">
              <mxPoint x="-340" y="-1120" />
              <mxPoint x="-277" y="-1120" />
            </Array>
          </mxGeometry>
        </mxCell>
        <mxCell id="N61VOvYEneSoVH0488H6-30" value="&lt;font color=&quot;#ff0000&quot;&gt;TSDN&lt;/font&gt;" style="rounded=1;whiteSpace=wrap;html=1;fontStyle=1" vertex="1" parent="1">
          <mxGeometry x="-78" y="-760" width="120" height="30" as="geometry" />
        </mxCell>
        <mxCell id="N61VOvYEneSoVH0488H6-46" value="" style="shape=curlyBracket;whiteSpace=wrap;html=1;rounded=1;flipH=1;labelPosition=right;verticalLabelPosition=middle;align=left;verticalAlign=middle;" vertex="1" parent="1">
          <mxGeometry x="40" y="-1016" width="20" height="50" as="geometry" />
        </mxCell>
        <mxCell id="N61VOvYEneSoVH0488H6-47" value="Spatially pool TSDN RF-weighted ESTMDs to obtain STMD" style="text;html=1;strokeColor=none;fillColor=none;align=left;verticalAlign=middle;whiteSpace=wrap;rounded=1;" vertex="1" parent="1">
          <mxGeometry x="67" y="-1011" width="183" height="35" as="geometry" />
        </mxCell>
        <mxCell id="N61VOvYEneSoVH0488H6-48" value="" style="group;rounded=1;" vertex="1" connectable="0" parent="1">
          <mxGeometry x="220" y="-1140" width="141" height="50" as="geometry" />
        </mxCell>
        <mxCell id="N61VOvYEneSoVH0488H6-32" value="" style="group;rounded=1;" vertex="1" connectable="0" parent="N61VOvYEneSoVH0488H6-48">
          <mxGeometry width="133" height="50" as="geometry" />
        </mxCell>
        <mxCell id="N61VOvYEneSoVH0488H6-33" value="" style="endArrow=none;html=1;rounded=1;strokeColor=#FF0000;" edge="1" parent="N61VOvYEneSoVH0488H6-32">
          <mxGeometry width="50" height="50" relative="1" as="geometry">
            <mxPoint y="15" as="sourcePoint" />
            <mxPoint x="40" y="15" as="targetPoint" />
          </mxGeometry>
        </mxCell>
        <mxCell id="N61VOvYEneSoVH0488H6-34" value="" style="endArrow=none;html=1;rounded=1;strokeColor=#0000FF;" edge="1" parent="N61VOvYEneSoVH0488H6-32">
          <mxGeometry width="50" height="50" relative="1" as="geometry">
            <mxPoint y="35" as="sourcePoint" />
            <mxPoint x="40" y="35" as="targetPoint" />
          </mxGeometry>
        </mxCell>
        <mxCell id="N61VOvYEneSoVH0488H6-35" value="Right preferred" style="text;html=1;strokeColor=none;fillColor=none;align=left;verticalAlign=middle;whiteSpace=wrap;rounded=1;" vertex="1" parent="N61VOvYEneSoVH0488H6-48">
          <mxGeometry x="45" width="96" height="30" as="geometry" />
        </mxCell>
        <mxCell id="N61VOvYEneSoVH0488H6-45" value="Left preferred" style="text;html=1;strokeColor=none;fillColor=none;align=left;verticalAlign=middle;whiteSpace=wrap;rounded=1;" vertex="1" parent="N61VOvYEneSoVH0488H6-48">
          <mxGeometry x="45" y="20" width="96" height="30" as="geometry" />
        </mxCell>
        <mxCell id="N61VOvYEneSoVH0488H6-49" value="&lt;font color=&quot;#0000ff&quot;&gt;STMD&lt;/font&gt;" style="rounded=1;whiteSpace=wrap;html=1;" vertex="1" parent="1">
          <mxGeometry x="-194" y="-1016" width="100" height="50" as="geometry" />
        </mxCell>
        <mxCell id="N61VOvYEneSoVH0488H6-50" value="&lt;font color=&quot;#ff0000&quot;&gt;STMD&lt;/font&gt;" style="rounded=1;whiteSpace=wrap;html=1;" vertex="1" parent="1">
          <mxGeometry x="-68" y="-1016" width="100" height="50" as="geometry" />
        </mxCell>
        <mxCell id="N61VOvYEneSoVH0488H6-51" value="" style="endArrow=classic;html=1;rounded=1;exitX=0.5;exitY=1;exitDx=0;exitDy=0;strokeColor=#0000FF;" edge="1" parent="1" source="N61VOvYEneSoVH0488H6-5" target="N61VOvYEneSoVH0488H6-49">
          <mxGeometry width="50" height="50" relative="1" as="geometry">
            <mxPoint x="-90" y="-920" as="sourcePoint" />
            <mxPoint x="-40" y="-970" as="targetPoint" />
          </mxGeometry>
        </mxCell>
        <mxCell id="N61VOvYEneSoVH0488H6-52" value="" style="endArrow=classic;html=1;rounded=1;exitX=0.5;exitY=1;exitDx=0;exitDy=0;entryX=0.5;entryY=0;entryDx=0;entryDy=0;strokeColor=#FF0000;" edge="1" parent="1" source="N61VOvYEneSoVH0488H6-6" target="N61VOvYEneSoVH0488H6-50">
          <mxGeometry width="50" height="50" relative="1" as="geometry">
            <mxPoint x="-90" y="-920" as="sourcePoint" />
            <mxPoint x="-40" y="-970" as="targetPoint" />
          </mxGeometry>
        </mxCell>
        <mxCell id="N61VOvYEneSoVH0488H6-53" value="" style="endArrow=classic;html=1;rounded=1;exitX=0.5;exitY=1;exitDx=0;exitDy=0;jumpStyle=arc;strokeColor=#0000FF;" edge="1" parent="1" source="N61VOvYEneSoVH0488H6-5">
          <mxGeometry width="50" height="50" relative="1" as="geometry">
            <mxPoint x="-90" y="-920" as="sourcePoint" />
            <mxPoint x="280" y="-910" as="targetPoint" />
            <Array as="points">
              <mxPoint x="-144" y="-1030" />
              <mxPoint x="-18" y="-1030" />
              <mxPoint x="280" y="-1030" />
            </Array>
          </mxGeometry>
        </mxCell>
        <mxCell id="N61VOvYEneSoVH0488H6-54" value="&lt;font color=&quot;#0000ff&quot;&gt;wSTMD&lt;/font&gt;" style="rounded=1;whiteSpace=wrap;html=1;dashed=1;dashPattern=12 12;" vertex="1" parent="1">
          <mxGeometry x="230" y="-910" width="100" height="50" as="geometry" />
        </mxCell>
        <mxCell id="N61VOvYEneSoVH0488H6-55" value="&lt;font color=&quot;#ff0000&quot;&gt;wSTMD&lt;/font&gt;" style="rounded=1;whiteSpace=wrap;html=1;dashed=1;dashPattern=12 12;" vertex="1" parent="1">
          <mxGeometry x="-580" y="-910" width="100" height="50" as="geometry" />
        </mxCell>
        <mxCell id="N61VOvYEneSoVH0488H6-57" value="" style="endArrow=classic;html=1;rounded=1;exitX=0.5;exitY=1;exitDx=0;exitDy=0;entryX=0.5;entryY=0;entryDx=0;entryDy=0;jumpStyle=arc;strokeColor=#FF0000;" edge="1" parent="1" source="N61VOvYEneSoVH0488H6-6" target="N61VOvYEneSoVH0488H6-55">
          <mxGeometry width="50" height="50" relative="1" as="geometry">
            <mxPoint x="-50" y="-990" as="sourcePoint" />
            <mxPoint x="-390" y="-920" as="targetPoint" />
            <Array as="points">
              <mxPoint x="-18" y="-1040" />
              <mxPoint x="-530" y="-1040" />
            </Array>
          </mxGeometry>
        </mxCell>
        <mxCell id="N61VOvYEneSoVH0488H6-62" value="" style="group;rounded=1;" vertex="1" connectable="0" parent="1">
          <mxGeometry x="-418" y="-910" width="30" height="40" as="geometry" />
        </mxCell>
        <mxCell id="N61VOvYEneSoVH0488H6-15" value="" style="ellipse;whiteSpace=wrap;html=1;aspect=fixed;strokeColor=#0000FF;container=0;rounded=1;" vertex="1" parent="N61VOvYEneSoVH0488H6-62">
          <mxGeometry y="10" width="30" height="30" as="geometry" />
        </mxCell>
        <mxCell id="N61VOvYEneSoVH0488H6-16" value="+" style="text;html=1;strokeColor=none;fillColor=none;align=center;verticalAlign=middle;whiteSpace=wrap;rounded=1;container=0;" vertex="1" parent="N61VOvYEneSoVH0488H6-62">
          <mxGeometry x="20" y="10" width="10" height="30" as="geometry" />
        </mxCell>
        <mxCell id="N61VOvYEneSoVH0488H6-17" value="-" style="text;html=1;strokeColor=none;fillColor=none;align=center;verticalAlign=middle;whiteSpace=wrap;rounded=1;container=0;" vertex="1" parent="N61VOvYEneSoVH0488H6-62">
          <mxGeometry x="10" width="10" height="30" as="geometry" />
        </mxCell>
        <mxCell id="N61VOvYEneSoVH0488H6-43" value="+" style="text;html=1;strokeColor=none;fillColor=none;align=center;verticalAlign=middle;whiteSpace=wrap;rounded=1;container=0;" vertex="1" parent="N61VOvYEneSoVH0488H6-62">
          <mxGeometry y="10" width="10" height="30" as="geometry" />
        </mxCell>
        <mxCell id="N61VOvYEneSoVH0488H6-63" value="" style="endArrow=classic;html=1;rounded=1;exitX=1;exitY=0.5;exitDx=0;exitDy=0;entryX=0;entryY=0.5;entryDx=0;entryDy=0;strokeColor=#FF0000;" edge="1" parent="1" source="N61VOvYEneSoVH0488H6-55" target="N61VOvYEneSoVH0488H6-15">
          <mxGeometry width="50" height="50" relative="1" as="geometry">
            <mxPoint x="-160" y="-880" as="sourcePoint" />
            <mxPoint x="-430" y="-880" as="targetPoint" />
          </mxGeometry>
        </mxCell>
        <mxCell id="N61VOvYEneSoVH0488H6-64" value="" style="endArrow=classic;html=1;rounded=1;exitX=0.5;exitY=1;exitDx=0;exitDy=0;entryX=0.5;entryY=0;entryDx=0;entryDy=0;strokeColor=#0000FF;jumpStyle=arc;" edge="1" parent="1" source="N61VOvYEneSoVH0488H6-11" target="N61VOvYEneSoVH0488H6-15">
          <mxGeometry width="50" height="50" relative="1" as="geometry">
            <mxPoint x="-160" y="-880" as="sourcePoint" />
            <mxPoint x="-390" y="-930" as="targetPoint" />
          </mxGeometry>
        </mxCell>
        <mxCell id="N61VOvYEneSoVH0488H6-65" value="" style="endArrow=classic;html=1;rounded=1;exitX=0;exitY=0.5;exitDx=0;exitDy=0;entryX=1;entryY=0.5;entryDx=0;entryDy=0;strokeColor=#0000FF;jumpStyle=arc;" edge="1" parent="1" source="N61VOvYEneSoVH0488H6-49" target="N61VOvYEneSoVH0488H6-16">
          <mxGeometry width="50" height="50" relative="1" as="geometry">
            <mxPoint x="-130" y="-900" as="sourcePoint" />
            <mxPoint x="-80" y="-950" as="targetPoint" />
            <Array as="points">
              <mxPoint x="-330" y="-990" />
              <mxPoint x="-330" y="-885" />
            </Array>
          </mxGeometry>
        </mxCell>
        <mxCell id="N61VOvYEneSoVH0488H6-72" value="" style="group;rounded=1;" vertex="1" connectable="0" parent="1">
          <mxGeometry x="-33" y="-910" width="30" height="40" as="geometry" />
        </mxCell>
        <mxCell id="N61VOvYEneSoVH0488H6-73" value="" style="ellipse;whiteSpace=wrap;html=1;aspect=fixed;strokeColor=#FF0000;container=0;rounded=1;" vertex="1" parent="N61VOvYEneSoVH0488H6-72">
          <mxGeometry y="10" width="30" height="30" as="geometry" />
        </mxCell>
        <mxCell id="N61VOvYEneSoVH0488H6-74" value="+" style="text;html=1;strokeColor=none;fillColor=none;align=center;verticalAlign=middle;whiteSpace=wrap;rounded=1;container=0;" vertex="1" parent="N61VOvYEneSoVH0488H6-72">
          <mxGeometry x="20" y="10" width="10" height="30" as="geometry" />
        </mxCell>
        <mxCell id="N61VOvYEneSoVH0488H6-76" value="+" style="text;html=1;strokeColor=none;fillColor=none;align=center;verticalAlign=middle;whiteSpace=wrap;rounded=1;container=0;" vertex="1" parent="N61VOvYEneSoVH0488H6-72">
          <mxGeometry x="10" width="10" height="30" as="geometry" />
        </mxCell>
        <mxCell id="N61VOvYEneSoVH0488H6-75" value="-" style="text;html=1;strokeColor=none;fillColor=none;align=center;verticalAlign=middle;whiteSpace=wrap;rounded=1;container=0;" vertex="1" parent="N61VOvYEneSoVH0488H6-72">
          <mxGeometry y="10" width="10" height="30" as="geometry" />
        </mxCell>
        <mxCell id="N61VOvYEneSoVH0488H6-77" value="" style="endArrow=classic;html=1;rounded=1;exitX=0;exitY=0.5;exitDx=0;exitDy=0;entryX=1;entryY=0.5;entryDx=0;entryDy=0;strokeColor=#0000FF;" edge="1" parent="1" source="N61VOvYEneSoVH0488H6-54" target="N61VOvYEneSoVH0488H6-74">
          <mxGeometry width="50" height="50" relative="1" as="geometry">
            <mxPoint x="-120" y="-890" as="sourcePoint" />
            <mxPoint x="-70" y="-940" as="targetPoint" />
          </mxGeometry>
        </mxCell>
        <mxCell id="N61VOvYEneSoVH0488H6-78" value="" style="endArrow=classic;html=1;rounded=1;exitX=0.5;exitY=1;exitDx=0;exitDy=0;entryX=0.5;entryY=0;entryDx=0;entryDy=0;strokeColor=#FF0000;" edge="1" parent="1" source="N61VOvYEneSoVH0488H6-50" target="N61VOvYEneSoVH0488H6-73">
          <mxGeometry width="50" height="50" relative="1" as="geometry">
            <mxPoint x="-60" y="-850" as="sourcePoint" />
            <mxPoint x="-10" y="-900" as="targetPoint" />
          </mxGeometry>
        </mxCell>
        <mxCell id="N61VOvYEneSoVH0488H6-79" value="" style="endArrow=classic;html=1;rounded=1;exitX=0.5;exitY=1;exitDx=0;exitDy=0;entryX=0;entryY=0.5;entryDx=0;entryDy=0;strokeColor=#FF0000;jumpStyle=arc;" edge="1" parent="1" source="N61VOvYEneSoVH0488H6-12" target="N61VOvYEneSoVH0488H6-75">
          <mxGeometry width="50" height="50" relative="1" as="geometry">
            <mxPoint x="100" y="-860" as="sourcePoint" />
            <mxPoint x="150" y="-910" as="targetPoint" />
            <Array as="points">
              <mxPoint x="-277" y="-885" />
            </Array>
          </mxGeometry>
        </mxCell>
        <mxCell id="N61VOvYEneSoVH0488H6-81" value="" style="endArrow=classic;html=1;rounded=1;exitX=0.5;exitY=1;exitDx=0;exitDy=0;entryX=0.5;entryY=0;entryDx=0;entryDy=0;strokeColor=#FF0000;" edge="1" parent="1" source="N61VOvYEneSoVH0488H6-73" target="N61VOvYEneSoVH0488H6-80">
          <mxGeometry width="50" height="50" relative="1" as="geometry">
            <mxPoint x="-160" y="-980" as="sourcePoint" />
            <mxPoint x="-110" y="-1030" as="targetPoint" />
          </mxGeometry>
        </mxCell>
        <mxCell id="N61VOvYEneSoVH0488H6-82" value="Left eye visual field&lt;br&gt;&lt;br&gt;" style="ellipse;whiteSpace=wrap;html=1;fillColor=#dae8fc;strokeColor=#6c8ebf;rounded=1;" vertex="1" parent="1">
          <mxGeometry x="-538" y="-820" width="270" height="110" as="geometry" />
        </mxCell>
        <mxCell id="N61VOvYEneSoVH0488H6-83" value="&lt;font color=&quot;#0000ff&quot;&gt;TSDN&lt;/font&gt;" style="rounded=1;whiteSpace=wrap;html=1;fontStyle=1" vertex="1" parent="1">
          <mxGeometry x="-463" y="-760" width="120" height="30" as="geometry" />
        </mxCell>
        <mxCell id="N61VOvYEneSoVH0488H6-84" value="" style="endArrow=classic;html=1;rounded=1;exitX=0.5;exitY=1;exitDx=0;exitDy=0;entryX=0.5;entryY=0;entryDx=0;entryDy=0;strokeColor=#0000FF;" edge="1" parent="1" source="N61VOvYEneSoVH0488H6-15" target="N61VOvYEneSoVH0488H6-82">
          <mxGeometry width="50" height="50" relative="1" as="geometry">
            <mxPoint x="-170" y="-980" as="sourcePoint" />
            <mxPoint x="-120" y="-1030" as="targetPoint" />
          </mxGeometry>
        </mxCell>
        <mxCell id="N61VOvYEneSoVH0488H6-137" value="Right eye visual field&lt;br&gt;&lt;br&gt;" style="ellipse;whiteSpace=wrap;html=1;fillColor=#f8cecc;strokeColor=#b85450;rounded=1;" vertex="1" parent="1">
          <mxGeometry x="-153" y="-164" width="270" height="110" as="geometry" />
        </mxCell>
        <mxCell id="N61VOvYEneSoVH0488H6-138" value="ESTMD" style="rounded=1;whiteSpace=wrap;html=1;fontStyle=1" vertex="1" parent="1">
          <mxGeometry x="-140" y="-584" width="120" height="30" as="geometry" />
        </mxCell>
        <mxCell id="N61VOvYEneSoVH0488H6-139" value="&lt;b&gt;Wide-field EMD&lt;/b&gt;&lt;br&gt;(&lt;svg style=&quot;vertical-align: -0.186ex;&quot; xmlns:xlink=&quot;http://www.w3.org/1999/xlink&quot; viewBox=&quot;0 -677 2850.6 759&quot; role=&quot;img&quot; height=&quot;1.717ex&quot; width=&quot;6.449ex&quot; xmlns=&quot;http://www.w3.org/2000/svg&quot;&gt;&lt;defs&gt;&lt;path d=&quot;M39 284Q18 284 18 294Q18 301 45 338T99 398Q134 425 164 429Q170 431 332 431Q492 431 497 429Q517 424 517 402Q517 388 508 376T485 360Q479 358 389 358T299 356Q298 355 283 274T251 109T233 20Q228 5 215 -4T186 -13Q153 -13 153 20V30L203 192Q214 228 227 272T248 336L254 357Q254 358 208 358Q206 358 197 358T183 359Q105 359 61 295Q56 287 53 286T39 284Z&quot; id=&quot;MJX-6-TEX-I-1D70F&quot;&gt;&lt;/path&gt;&lt;path d=&quot;M56 347Q56 360 70 367H707Q722 359 722 347Q722 336 708 328L390 327H72Q56 332 56 347ZM56 153Q56 168 72 173H708Q722 163 722 153Q722 140 707 133H70Q56 140 56 153Z&quot; id=&quot;MJX-6-TEX-N-3D&quot;&gt;&lt;/path&gt;&lt;path d=&quot;M462 0Q444 3 333 3Q217 3 199 0H190V46H221Q241 46 248 46T265 48T279 53T286 61Q287 63 287 115V165H28V211L179 442Q332 674 334 675Q336 677 355 677H373L379 671V211H471V165H379V114Q379 73 379 66T385 54Q393 47 442 46H471V0H462ZM293 211V545L74 212L183 211H293Z&quot; id=&quot;MJX-6-TEX-N-34&quot;&gt;&lt;/path&gt;&lt;path d=&quot;M96 585Q152 666 249 666Q297 666 345 640T423 548Q460 465 460 320Q460 165 417 83Q397 41 362 16T301 -15T250 -22Q224 -22 198 -16T137 16T82 83Q39 165 39 320Q39 494 96 585ZM321 597Q291 629 250 629Q208 629 178 597Q153 571 145 525T137 333Q137 175 145 125T181 46Q209 16 250 16Q290 16 318 46Q347 76 354 130T362 333Q362 478 354 524T321 597Z&quot; id=&quot;MJX-6-TEX-N-30&quot;&gt;&lt;/path&gt;&lt;/defs&gt;&lt;g transform=&quot;scale(1,-1)&quot; stroke-width=&quot;0&quot; fill=&quot;currentColor&quot; stroke=&quot;currentColor&quot;&gt;&lt;g data-mml-node=&quot;math&quot;&gt;&lt;g data-mml-node=&quot;mi&quot;&gt;&lt;use xlink:href=&quot;#MJX-6-TEX-I-1D70F&quot; data-c=&quot;1D70F&quot;&gt;&lt;/use&gt;&lt;/g&gt;&lt;g transform=&quot;translate(794.8,0)&quot; data-mml-node=&quot;mo&quot;&gt;&lt;use xlink:href=&quot;#MJX-6-TEX-N-3D&quot; data-c=&quot;3D&quot;&gt;&lt;/use&gt;&lt;/g&gt;&lt;g transform=&quot;translate(1850.6,0)&quot; data-mml-node=&quot;mn&quot;&gt;&lt;use xlink:href=&quot;#MJX-6-TEX-N-34&quot; data-c=&quot;34&quot;&gt;&lt;/use&gt;&lt;use transform=&quot;translate(500,0)&quot; xlink:href=&quot;#MJX-6-TEX-N-30&quot; data-c=&quot;30&quot;&gt;&lt;/use&gt;&lt;/g&gt;&lt;/g&gt;&lt;/g&gt;&lt;/svg&gt;&amp;nbsp;ms)&lt;br&gt;Directionally selective" style="rounded=1;whiteSpace=wrap;html=1;" vertex="1" parent="1">
          <mxGeometry x="-400" y="-559" width="120" height="60" as="geometry" />
        </mxCell>
        <mxCell id="N61VOvYEneSoVH0488H6-140" value="Directionally selective ESTMD" style="rounded=1;whiteSpace=wrap;html=1;" vertex="1" parent="1">
          <mxGeometry x="-140" y="-524" width="120" height="40" as="geometry" />
        </mxCell>
        <mxCell id="N61VOvYEneSoVH0488H6-141" value="" style="endArrow=classic;html=1;rounded=1;exitX=0.5;exitY=1;exitDx=0;exitDy=0;" edge="1" parent="1" source="N61VOvYEneSoVH0488H6-138" target="N61VOvYEneSoVH0488H6-140">
          <mxGeometry width="50" height="50" relative="1" as="geometry">
            <mxPoint x="50" y="-354" as="sourcePoint" />
            <mxPoint x="100" y="-404" as="targetPoint" />
          </mxGeometry>
        </mxCell>
        <mxCell id="N61VOvYEneSoVH0488H6-142" value="HW-R&lt;br&gt;&lt;font color=&quot;#0000ff&quot;&gt;ESTMD&lt;/font&gt;" style="rounded=1;whiteSpace=wrap;html=1;" vertex="1" parent="1">
          <mxGeometry x="-194" y="-444" width="100" height="50" as="geometry" />
        </mxCell>
        <mxCell id="N61VOvYEneSoVH0488H6-143" value="HW-R&lt;br&gt;&lt;font color=&quot;#ff0000&quot;&gt;ESTMD&lt;/font&gt;" style="rounded=1;whiteSpace=wrap;html=1;" vertex="1" parent="1">
          <mxGeometry x="-68" y="-444" width="100" height="50" as="geometry" />
        </mxCell>
        <mxCell id="N61VOvYEneSoVH0488H6-144" value="" style="endArrow=classic;html=1;rounded=1;exitX=0.5;exitY=1;exitDx=0;exitDy=0;entryX=0.5;entryY=0;entryDx=0;entryDy=0;" edge="1" parent="1" source="N61VOvYEneSoVH0488H6-140" target="N61VOvYEneSoVH0488H6-142">
          <mxGeometry width="50" height="50" relative="1" as="geometry">
            <mxPoint x="50" y="-434" as="sourcePoint" />
            <mxPoint x="100" y="-484" as="targetPoint" />
            <Array as="points">
              <mxPoint x="-80" y="-464" />
              <mxPoint x="-144" y="-464" />
            </Array>
          </mxGeometry>
        </mxCell>
        <mxCell id="N61VOvYEneSoVH0488H6-145" value="" style="endArrow=classic;html=1;rounded=1;exitX=0.5;exitY=1;exitDx=0;exitDy=0;entryX=0.5;entryY=0;entryDx=0;entryDy=0;" edge="1" parent="1" source="N61VOvYEneSoVH0488H6-140" target="N61VOvYEneSoVH0488H6-143">
          <mxGeometry width="50" height="50" relative="1" as="geometry">
            <mxPoint x="50" y="-434" as="sourcePoint" />
            <mxPoint x="100" y="-484" as="targetPoint" />
            <Array as="points">
              <mxPoint x="-80" y="-464" />
              <mxPoint x="-18" y="-464" />
            </Array>
          </mxGeometry>
        </mxCell>
        <mxCell id="N61VOvYEneSoVH0488H6-146" value="" style="shape=curlyBracket;whiteSpace=wrap;html=1;rounded=1;flipH=1;labelPosition=right;verticalLabelPosition=middle;align=left;verticalAlign=middle;" vertex="1" parent="1">
          <mxGeometry x="-7" y="-524" width="20" height="40" as="geometry" />
        </mxCell>
        <mxCell id="N61VOvYEneSoVH0488H6-147" value="Low-pass filtered and then correlated (&lt;svg style=&quot;vertical-align: -0.186ex;&quot; xmlns:xlink=&quot;http://www.w3.org/1999/xlink&quot; viewBox=&quot;0 -677 2850.6 759&quot; role=&quot;img&quot; height=&quot;1.717ex&quot; width=&quot;6.449ex&quot; xmlns=&quot;http://www.w3.org/2000/svg&quot;&gt;&lt;defs&gt;&lt;path d=&quot;M39 284Q18 284 18 294Q18 301 45 338T99 398Q134 425 164 429Q170 431 332 431Q492 431 497 429Q517 424 517 402Q517 388 508 376T485 360Q479 358 389 358T299 356Q298 355 283 274T251 109T233 20Q228 5 215 -4T186 -13Q153 -13 153 20V30L203 192Q214 228 227 272T248 336L254 357Q254 358 208 358Q206 358 197 358T183 359Q105 359 61 295Q56 287 53 286T39 284Z&quot; id=&quot;MJX-6-TEX-I-1D70F&quot;&gt;&lt;/path&gt;&lt;path d=&quot;M56 347Q56 360 70 367H707Q722 359 722 347Q722 336 708 328L390 327H72Q56 332 56 347ZM56 153Q56 168 72 173H708Q722 163 722 153Q722 140 707 133H70Q56 140 56 153Z&quot; id=&quot;MJX-6-TEX-N-3D&quot;&gt;&lt;/path&gt;&lt;path d=&quot;M462 0Q444 3 333 3Q217 3 199 0H190V46H221Q241 46 248 46T265 48T279 53T286 61Q287 63 287 115V165H28V211L179 442Q332 674 334 675Q336 677 355 677H373L379 671V211H471V165H379V114Q379 73 379 66T385 54Q393 47 442 46H471V0H462ZM293 211V545L74 212L183 211H293Z&quot; id=&quot;MJX-6-TEX-N-34&quot;&gt;&lt;/path&gt;&lt;path d=&quot;M96 585Q152 666 249 666Q297 666 345 640T423 548Q460 465 460 320Q460 165 417 83Q397 41 362 16T301 -15T250 -22Q224 -22 198 -16T137 16T82 83Q39 165 39 320Q39 494 96 585ZM321 597Q291 629 250 629Q208 629 178 597Q153 571 145 525T137 333Q137 175 145 125T181 46Q209 16 250 16Q290 16 318 46Q347 76 354 130T362 333Q362 478 354 524T321 597Z&quot; id=&quot;MJX-6-TEX-N-30&quot;&gt;&lt;/path&gt;&lt;/defs&gt;&lt;g transform=&quot;scale(1,-1)&quot; stroke-width=&quot;0&quot; fill=&quot;currentColor&quot; stroke=&quot;currentColor&quot;&gt;&lt;g data-mml-node=&quot;math&quot;&gt;&lt;g data-mml-node=&quot;mi&quot;&gt;&lt;use xlink:href=&quot;#MJX-6-TEX-I-1D70F&quot; data-c=&quot;1D70F&quot;&gt;&lt;/use&gt;&lt;/g&gt;&lt;g transform=&quot;translate(794.8,0)&quot; data-mml-node=&quot;mo&quot;&gt;&lt;use xlink:href=&quot;#MJX-6-TEX-N-3D&quot; data-c=&quot;3D&quot;&gt;&lt;/use&gt;&lt;/g&gt;&lt;g transform=&quot;translate(1850.6,0)&quot; data-mml-node=&quot;mn&quot;&gt;&lt;use xlink:href=&quot;#MJX-6-TEX-N-34&quot; data-c=&quot;34&quot;&gt;&lt;/use&gt;&lt;use transform=&quot;translate(500,0)&quot; xlink:href=&quot;#MJX-6-TEX-N-30&quot; data-c=&quot;30&quot;&gt;&lt;/use&gt;&lt;/g&gt;&lt;/g&gt;&lt;/g&gt;&lt;/svg&gt;&amp;nbsp;ms)" style="text;html=1;strokeColor=none;fillColor=none;align=left;verticalAlign=middle;whiteSpace=wrap;rounded=1;" vertex="1" parent="1">
          <mxGeometry x="20" y="-519" width="150" height="30" as="geometry" />
        </mxCell>
        <mxCell id="N61VOvYEneSoVH0488H6-148" value="HW-R&lt;br&gt;&lt;font color=&quot;#0000ff&quot;&gt;LPTC&lt;/font&gt;" style="rounded=1;whiteSpace=wrap;html=1;" vertex="1" parent="1">
          <mxGeometry x="-453" y="-444" width="100" height="50" as="geometry" />
        </mxCell>
        <mxCell id="N61VOvYEneSoVH0488H6-149" value="HW-R&lt;br&gt;&lt;font color=&quot;#ff0000&quot;&gt;LPTC&lt;/font&gt;" style="rounded=1;whiteSpace=wrap;html=1;" vertex="1" parent="1">
          <mxGeometry x="-327" y="-444" width="100" height="50" as="geometry" />
        </mxCell>
        <mxCell id="N61VOvYEneSoVH0488H6-150" value="" style="endArrow=classic;html=1;rounded=1;exitX=0.5;exitY=1;exitDx=0;exitDy=0;entryX=0.5;entryY=0;entryDx=0;entryDy=0;" edge="1" parent="1" source="N61VOvYEneSoVH0488H6-139" target="N61VOvYEneSoVH0488H6-148">
          <mxGeometry width="50" height="50" relative="1" as="geometry">
            <mxPoint x="-339" y="-484" as="sourcePoint" />
            <mxPoint x="-159" y="-484" as="targetPoint" />
            <Array as="points">
              <mxPoint x="-340" y="-464" />
              <mxPoint x="-403" y="-464" />
            </Array>
          </mxGeometry>
        </mxCell>
        <mxCell id="N61VOvYEneSoVH0488H6-151" value="" style="endArrow=classic;html=1;rounded=1;exitX=0.5;exitY=1;exitDx=0;exitDy=0;entryX=0.5;entryY=0;entryDx=0;entryDy=0;" edge="1" parent="1" source="N61VOvYEneSoVH0488H6-139" target="N61VOvYEneSoVH0488H6-149">
          <mxGeometry width="50" height="50" relative="1" as="geometry">
            <mxPoint x="-340" y="-474" as="sourcePoint" />
            <mxPoint x="-290" y="-524" as="targetPoint" />
            <Array as="points">
              <mxPoint x="-340" y="-464" />
              <mxPoint x="-277" y="-464" />
            </Array>
          </mxGeometry>
        </mxCell>
        <mxCell id="N61VOvYEneSoVH0488H6-152" value="&lt;font color=&quot;#ff0000&quot;&gt;TSDN&lt;/font&gt;" style="rounded=1;whiteSpace=wrap;html=1;fontStyle=1" vertex="1" parent="1">
          <mxGeometry x="-78" y="-104" width="120" height="30" as="geometry" />
        </mxCell>
        <mxCell id="N61VOvYEneSoVH0488H6-153" value="" style="shape=curlyBracket;whiteSpace=wrap;html=1;rounded=1;flipH=1;labelPosition=right;verticalLabelPosition=middle;align=left;verticalAlign=middle;" vertex="1" parent="1">
          <mxGeometry x="40" y="-360" width="20" height="50" as="geometry" />
        </mxCell>
        <mxCell id="N61VOvYEneSoVH0488H6-154" value="Spatially pool TSDN RF-weighted ESTMDs to obtain STMD" style="text;html=1;strokeColor=none;fillColor=none;align=left;verticalAlign=middle;whiteSpace=wrap;rounded=1;" vertex="1" parent="1">
          <mxGeometry x="67" y="-355" width="183" height="35" as="geometry" />
        </mxCell>
        <mxCell id="N61VOvYEneSoVH0488H6-155" value="" style="group;rounded=1;" vertex="1" connectable="0" parent="1">
          <mxGeometry x="220" y="-484" width="141" height="50" as="geometry" />
        </mxCell>
        <mxCell id="N61VOvYEneSoVH0488H6-156" value="" style="group;rounded=1;" vertex="1" connectable="0" parent="N61VOvYEneSoVH0488H6-155">
          <mxGeometry width="133" height="50" as="geometry" />
        </mxCell>
        <mxCell id="N61VOvYEneSoVH0488H6-157" value="" style="endArrow=none;html=1;rounded=1;strokeColor=#FF0000;" edge="1" parent="N61VOvYEneSoVH0488H6-156">
          <mxGeometry width="50" height="50" relative="1" as="geometry">
            <mxPoint y="15" as="sourcePoint" />
            <mxPoint x="40" y="15" as="targetPoint" />
          </mxGeometry>
        </mxCell>
        <mxCell id="N61VOvYEneSoVH0488H6-158" value="" style="endArrow=none;html=1;rounded=1;strokeColor=#0000FF;" edge="1" parent="N61VOvYEneSoVH0488H6-156">
          <mxGeometry width="50" height="50" relative="1" as="geometry">
            <mxPoint y="35" as="sourcePoint" />
            <mxPoint x="40" y="35" as="targetPoint" />
          </mxGeometry>
        </mxCell>
        <mxCell id="N61VOvYEneSoVH0488H6-159" value="Right preferred" style="text;html=1;strokeColor=none;fillColor=none;align=left;verticalAlign=middle;whiteSpace=wrap;rounded=1;" vertex="1" parent="N61VOvYEneSoVH0488H6-155">
          <mxGeometry x="45" width="96" height="30" as="geometry" />
        </mxCell>
        <mxCell id="N61VOvYEneSoVH0488H6-160" value="Left preferred" style="text;html=1;strokeColor=none;fillColor=none;align=left;verticalAlign=middle;whiteSpace=wrap;rounded=1;" vertex="1" parent="N61VOvYEneSoVH0488H6-155">
          <mxGeometry x="45" y="20" width="96" height="30" as="geometry" />
        </mxCell>
        <mxCell id="N61VOvYEneSoVH0488H6-161" value="&lt;font color=&quot;#0000ff&quot;&gt;STMD&lt;/font&gt;" style="rounded=1;whiteSpace=wrap;html=1;" vertex="1" parent="1">
          <mxGeometry x="-194" y="-360" width="100" height="50" as="geometry" />
        </mxCell>
        <mxCell id="N61VOvYEneSoVH0488H6-162" value="&lt;font color=&quot;#ff0000&quot;&gt;STMD&lt;/font&gt;" style="rounded=1;whiteSpace=wrap;html=1;" vertex="1" parent="1">
          <mxGeometry x="-68" y="-360" width="100" height="50" as="geometry" />
        </mxCell>
        <mxCell id="N61VOvYEneSoVH0488H6-163" value="" style="endArrow=classic;html=1;rounded=1;exitX=0.5;exitY=1;exitDx=0;exitDy=0;strokeColor=#0000FF;" edge="1" parent="1" source="N61VOvYEneSoVH0488H6-142" target="N61VOvYEneSoVH0488H6-161">
          <mxGeometry width="50" height="50" relative="1" as="geometry">
            <mxPoint x="-90" y="-264" as="sourcePoint" />
            <mxPoint x="-40" y="-314" as="targetPoint" />
          </mxGeometry>
        </mxCell>
        <mxCell id="N61VOvYEneSoVH0488H6-164" value="" style="endArrow=classic;html=1;rounded=1;exitX=0.5;exitY=1;exitDx=0;exitDy=0;entryX=0.5;entryY=0;entryDx=0;entryDy=0;strokeColor=#FF0000;" edge="1" parent="1" source="N61VOvYEneSoVH0488H6-143" target="N61VOvYEneSoVH0488H6-162">
          <mxGeometry width="50" height="50" relative="1" as="geometry">
            <mxPoint x="-90" y="-264" as="sourcePoint" />
            <mxPoint x="-40" y="-314" as="targetPoint" />
          </mxGeometry>
        </mxCell>
        <mxCell id="N61VOvYEneSoVH0488H6-169" value="" style="group;rounded=1;" vertex="1" connectable="0" parent="1">
          <mxGeometry x="-418" y="-254" width="30" height="40" as="geometry" />
        </mxCell>
        <mxCell id="N61VOvYEneSoVH0488H6-170" value="" style="ellipse;whiteSpace=wrap;html=1;aspect=fixed;strokeColor=#0000FF;container=0;rounded=1;" vertex="1" parent="N61VOvYEneSoVH0488H6-169">
          <mxGeometry y="10" width="30" height="30" as="geometry" />
        </mxCell>
        <mxCell id="N61VOvYEneSoVH0488H6-171" value="+" style="text;html=1;strokeColor=none;fillColor=none;align=center;verticalAlign=middle;whiteSpace=wrap;rounded=1;container=0;" vertex="1" parent="N61VOvYEneSoVH0488H6-169">
          <mxGeometry x="20" y="10" width="10" height="30" as="geometry" />
        </mxCell>
        <mxCell id="N61VOvYEneSoVH0488H6-172" value="-" style="text;html=1;strokeColor=none;fillColor=none;align=center;verticalAlign=middle;whiteSpace=wrap;rounded=1;container=0;" vertex="1" parent="N61VOvYEneSoVH0488H6-169">
          <mxGeometry x="10" width="10" height="30" as="geometry" />
        </mxCell>
        <mxCell id="N61VOvYEneSoVH0488H6-173" value="+" style="text;html=1;strokeColor=none;fillColor=none;align=center;verticalAlign=middle;whiteSpace=wrap;rounded=1;container=0;" vertex="1" parent="N61VOvYEneSoVH0488H6-169">
          <mxGeometry y="10" width="10" height="30" as="geometry" />
        </mxCell>
        <mxCell id="N61VOvYEneSoVH0488H6-175" value="" style="endArrow=classic;html=1;rounded=1;exitX=0.5;exitY=1;exitDx=0;exitDy=0;entryX=0.5;entryY=0;entryDx=0;entryDy=0;strokeColor=#0000FF;jumpStyle=arc;" edge="1" parent="1" source="N61VOvYEneSoVH0488H6-148" target="N61VOvYEneSoVH0488H6-170">
          <mxGeometry width="50" height="50" relative="1" as="geometry">
            <mxPoint x="-160" y="-224" as="sourcePoint" />
            <mxPoint x="-390" y="-274" as="targetPoint" />
          </mxGeometry>
        </mxCell>
        <mxCell id="N61VOvYEneSoVH0488H6-176" value="" style="endArrow=classic;html=1;rounded=1;exitX=0;exitY=0.5;exitDx=0;exitDy=0;entryX=1;entryY=0.5;entryDx=0;entryDy=0;strokeColor=#0000FF;jumpStyle=arc;" edge="1" parent="1" source="N61VOvYEneSoVH0488H6-161" target="N61VOvYEneSoVH0488H6-171">
          <mxGeometry width="50" height="50" relative="1" as="geometry">
            <mxPoint x="-130" y="-244" as="sourcePoint" />
            <mxPoint x="-80" y="-294" as="targetPoint" />
            <Array as="points">
              <mxPoint x="-330" y="-334" />
              <mxPoint x="-330" y="-229" />
            </Array>
          </mxGeometry>
        </mxCell>
        <mxCell id="N61VOvYEneSoVH0488H6-177" value="" style="group;rounded=1;" vertex="1" connectable="0" parent="1">
          <mxGeometry x="-33" y="-254" width="30" height="40" as="geometry" />
        </mxCell>
        <mxCell id="N61VOvYEneSoVH0488H6-178" value="" style="ellipse;whiteSpace=wrap;html=1;aspect=fixed;strokeColor=#FF0000;container=0;rounded=1;" vertex="1" parent="N61VOvYEneSoVH0488H6-177">
          <mxGeometry y="10" width="30" height="30" as="geometry" />
        </mxCell>
        <mxCell id="N61VOvYEneSoVH0488H6-179" value="+" style="text;html=1;strokeColor=none;fillColor=none;align=center;verticalAlign=middle;whiteSpace=wrap;rounded=1;container=0;" vertex="1" parent="N61VOvYEneSoVH0488H6-177">
          <mxGeometry x="20" y="10" width="10" height="30" as="geometry" />
        </mxCell>
        <mxCell id="N61VOvYEneSoVH0488H6-180" value="+" style="text;html=1;strokeColor=none;fillColor=none;align=center;verticalAlign=middle;whiteSpace=wrap;rounded=1;container=0;" vertex="1" parent="N61VOvYEneSoVH0488H6-177">
          <mxGeometry x="10" width="10" height="30" as="geometry" />
        </mxCell>
        <mxCell id="N61VOvYEneSoVH0488H6-181" value="-" style="text;html=1;strokeColor=none;fillColor=none;align=center;verticalAlign=middle;whiteSpace=wrap;rounded=1;container=0;" vertex="1" parent="N61VOvYEneSoVH0488H6-177">
          <mxGeometry y="10" width="10" height="30" as="geometry" />
        </mxCell>
        <mxCell id="N61VOvYEneSoVH0488H6-183" value="" style="endArrow=classic;html=1;rounded=1;exitX=0.5;exitY=1;exitDx=0;exitDy=0;entryX=0.5;entryY=0;entryDx=0;entryDy=0;strokeColor=#FF0000;" edge="1" parent="1" source="N61VOvYEneSoVH0488H6-162" target="N61VOvYEneSoVH0488H6-178">
          <mxGeometry width="50" height="50" relative="1" as="geometry">
            <mxPoint x="-60" y="-194" as="sourcePoint" />
            <mxPoint x="-10" y="-244" as="targetPoint" />
          </mxGeometry>
        </mxCell>
        <mxCell id="N61VOvYEneSoVH0488H6-184" value="" style="endArrow=classic;html=1;rounded=1;exitX=0.5;exitY=1;exitDx=0;exitDy=0;entryX=0;entryY=0.5;entryDx=0;entryDy=0;strokeColor=#FF0000;jumpStyle=arc;" edge="1" parent="1" source="N61VOvYEneSoVH0488H6-149" target="N61VOvYEneSoVH0488H6-181">
          <mxGeometry width="50" height="50" relative="1" as="geometry">
            <mxPoint x="100" y="-204" as="sourcePoint" />
            <mxPoint x="150" y="-254" as="targetPoint" />
            <Array as="points">
              <mxPoint x="-277" y="-229" />
            </Array>
          </mxGeometry>
        </mxCell>
        <mxCell id="N61VOvYEneSoVH0488H6-185" value="" style="endArrow=classic;html=1;rounded=1;exitX=0.5;exitY=1;exitDx=0;exitDy=0;entryX=0.5;entryY=0;entryDx=0;entryDy=0;strokeColor=#FF0000;" edge="1" parent="1" source="N61VOvYEneSoVH0488H6-178" target="N61VOvYEneSoVH0488H6-137">
          <mxGeometry width="50" height="50" relative="1" as="geometry">
            <mxPoint x="-160" y="-324" as="sourcePoint" />
            <mxPoint x="-110" y="-374" as="targetPoint" />
          </mxGeometry>
        </mxCell>
        <mxCell id="N61VOvYEneSoVH0488H6-186" value="Left eye visual field&lt;br&gt;&lt;br&gt;" style="ellipse;whiteSpace=wrap;html=1;fillColor=#dae8fc;strokeColor=#6c8ebf;rounded=1;" vertex="1" parent="1">
          <mxGeometry x="-538" y="-164" width="270" height="110" as="geometry" />
        </mxCell>
        <mxCell id="N61VOvYEneSoVH0488H6-187" value="&lt;font color=&quot;#0000ff&quot;&gt;TSDN&lt;/font&gt;" style="rounded=1;whiteSpace=wrap;html=1;fontStyle=1" vertex="1" parent="1">
          <mxGeometry x="-463" y="-104" width="120" height="30" as="geometry" />
        </mxCell>
        <mxCell id="N61VOvYEneSoVH0488H6-188" value="" style="endArrow=classic;html=1;rounded=1;exitX=0.5;exitY=1;exitDx=0;exitDy=0;entryX=0.5;entryY=0;entryDx=0;entryDy=0;strokeColor=#0000FF;" edge="1" parent="1" source="N61VOvYEneSoVH0488H6-170" target="N61VOvYEneSoVH0488H6-186">
          <mxGeometry width="50" height="50" relative="1" as="geometry">
            <mxPoint x="-170" y="-324" as="sourcePoint" />
            <mxPoint x="-120" y="-374" as="targetPoint" />
          </mxGeometry>
        </mxCell>
        <mxCell id="N61VOvYEneSoVH0488H6-189" value="" style="endArrow=classic;html=1;rounded=1;exitX=0.5;exitY=1;exitDx=0;exitDy=0;entryX=1;entryY=0.5;entryDx=0;entryDy=0;strokeColor=#FF0000;" edge="1" parent="1" source="N61VOvYEneSoVH0488H6-149" target="N61VOvYEneSoVH0488H6-191">
          <mxGeometry width="50" height="50" relative="1" as="geometry">
            <mxPoint x="-230" y="-340" as="sourcePoint" />
            <mxPoint x="-400" y="-320" as="targetPoint" />
            <Array as="points">
              <mxPoint x="-277" y="-358" />
            </Array>
          </mxGeometry>
        </mxCell>
        <mxCell id="N61VOvYEneSoVH0488H6-190" value="" style="group;rounded=1;" vertex="1" connectable="0" parent="1">
          <mxGeometry x="-418" y="-379" width="30" height="40" as="geometry" />
        </mxCell>
        <mxCell id="N61VOvYEneSoVH0488H6-191" value="" style="ellipse;whiteSpace=wrap;html=1;aspect=fixed;strokeColor=#0000FF;container=0;rounded=1;" vertex="1" parent="N61VOvYEneSoVH0488H6-190">
          <mxGeometry y="6" width="30" height="30" as="geometry" />
        </mxCell>
        <mxCell id="N61VOvYEneSoVH0488H6-193" value="-" style="text;html=1;strokeColor=none;fillColor=none;align=center;verticalAlign=middle;whiteSpace=wrap;rounded=1;container=0;" vertex="1" parent="N61VOvYEneSoVH0488H6-190">
          <mxGeometry x="20" y="5" width="10" height="30" as="geometry" />
        </mxCell>
        <mxCell id="N61VOvYEneSoVH0488H6-192" value="+" style="text;html=1;strokeColor=none;fillColor=none;align=center;verticalAlign=middle;whiteSpace=wrap;rounded=1;container=0;" vertex="1" parent="N61VOvYEneSoVH0488H6-190">
          <mxGeometry x="10" y="-1" width="10" height="30" as="geometry" />
        </mxCell>
        <mxCell id="N61VOvYEneSoVH0488H6-198" value="" style="group;rounded=1;" vertex="1" connectable="0" parent="1">
          <mxGeometry x="-292" y="-294" width="30" height="40" as="geometry" />
        </mxCell>
        <mxCell id="N61VOvYEneSoVH0488H6-199" value="" style="ellipse;whiteSpace=wrap;html=1;aspect=fixed;strokeColor=#FF0000;container=0;rounded=1;" vertex="1" parent="N61VOvYEneSoVH0488H6-198">
          <mxGeometry y="6" width="30" height="30" as="geometry" />
        </mxCell>
        <mxCell id="N61VOvYEneSoVH0488H6-200" value="-" style="text;html=1;strokeColor=none;fillColor=none;align=center;verticalAlign=middle;whiteSpace=wrap;rounded=1;container=0;" vertex="1" parent="N61VOvYEneSoVH0488H6-198">
          <mxGeometry y="5" width="10" height="30" as="geometry" />
        </mxCell>
        <mxCell id="N61VOvYEneSoVH0488H6-201" value="+" style="text;html=1;strokeColor=none;fillColor=none;align=center;verticalAlign=middle;whiteSpace=wrap;rounded=1;container=0;" vertex="1" parent="N61VOvYEneSoVH0488H6-198">
          <mxGeometry x="10" y="-1" width="10" height="30" as="geometry" />
        </mxCell>
        <mxCell id="N61VOvYEneSoVH0488H6-202" value="" style="endArrow=classic;html=1;rounded=1;exitX=0.5;exitY=1;exitDx=0;exitDy=0;entryX=0;entryY=0.5;entryDx=0;entryDy=0;endFill=1;strokeColor=#0000FF;" edge="1" parent="1" source="N61VOvYEneSoVH0488H6-191" target="N61VOvYEneSoVH0488H6-200">
          <mxGeometry width="50" height="50" relative="1" as="geometry">
            <mxPoint x="-290" y="-240" as="sourcePoint" />
            <mxPoint x="-240" y="-290" as="targetPoint" />
            <Array as="points">
              <mxPoint x="-403" y="-274" />
            </Array>
          </mxGeometry>
        </mxCell>
        <mxCell id="N61VOvYEneSoVH0488H6-207" value="ESTMD" style="rounded=1;whiteSpace=wrap;html=1;fontStyle=1" vertex="1" parent="1">
          <mxGeometry x="-110.5" y="-1870" width="120" height="30" as="geometry" />
        </mxCell>
        <mxCell id="N61VOvYEneSoVH0488H6-208" value="&lt;b&gt;Wide-field EMD&lt;/b&gt;&lt;br&gt;(&lt;svg style=&quot;vertical-align: -0.186ex;&quot; xmlns:xlink=&quot;http://www.w3.org/1999/xlink&quot; viewBox=&quot;0 -677 2850.6 759&quot; role=&quot;img&quot; height=&quot;1.717ex&quot; width=&quot;6.449ex&quot; xmlns=&quot;http://www.w3.org/2000/svg&quot;&gt;&lt;defs&gt;&lt;path d=&quot;M39 284Q18 284 18 294Q18 301 45 338T99 398Q134 425 164 429Q170 431 332 431Q492 431 497 429Q517 424 517 402Q517 388 508 376T485 360Q479 358 389 358T299 356Q298 355 283 274T251 109T233 20Q228 5 215 -4T186 -13Q153 -13 153 20V30L203 192Q214 228 227 272T248 336L254 357Q254 358 208 358Q206 358 197 358T183 359Q105 359 61 295Q56 287 53 286T39 284Z&quot; id=&quot;MJX-6-TEX-I-1D70F&quot;&gt;&lt;/path&gt;&lt;path d=&quot;M56 347Q56 360 70 367H707Q722 359 722 347Q722 336 708 328L390 327H72Q56 332 56 347ZM56 153Q56 168 72 173H708Q722 163 722 153Q722 140 707 133H70Q56 140 56 153Z&quot; id=&quot;MJX-6-TEX-N-3D&quot;&gt;&lt;/path&gt;&lt;path d=&quot;M462 0Q444 3 333 3Q217 3 199 0H190V46H221Q241 46 248 46T265 48T279 53T286 61Q287 63 287 115V165H28V211L179 442Q332 674 334 675Q336 677 355 677H373L379 671V211H471V165H379V114Q379 73 379 66T385 54Q393 47 442 46H471V0H462ZM293 211V545L74 212L183 211H293Z&quot; id=&quot;MJX-6-TEX-N-34&quot;&gt;&lt;/path&gt;&lt;path d=&quot;M96 585Q152 666 249 666Q297 666 345 640T423 548Q460 465 460 320Q460 165 417 83Q397 41 362 16T301 -15T250 -22Q224 -22 198 -16T137 16T82 83Q39 165 39 320Q39 494 96 585ZM321 597Q291 629 250 629Q208 629 178 597Q153 571 145 525T137 333Q137 175 145 125T181 46Q209 16 250 16Q290 16 318 46Q347 76 354 130T362 333Q362 478 354 524T321 597Z&quot; id=&quot;MJX-6-TEX-N-30&quot;&gt;&lt;/path&gt;&lt;/defs&gt;&lt;g transform=&quot;scale(1,-1)&quot; stroke-width=&quot;0&quot; fill=&quot;currentColor&quot; stroke=&quot;currentColor&quot;&gt;&lt;g data-mml-node=&quot;math&quot;&gt;&lt;g data-mml-node=&quot;mi&quot;&gt;&lt;use xlink:href=&quot;#MJX-6-TEX-I-1D70F&quot; data-c=&quot;1D70F&quot;&gt;&lt;/use&gt;&lt;/g&gt;&lt;g transform=&quot;translate(794.8,0)&quot; data-mml-node=&quot;mo&quot;&gt;&lt;use xlink:href=&quot;#MJX-6-TEX-N-3D&quot; data-c=&quot;3D&quot;&gt;&lt;/use&gt;&lt;/g&gt;&lt;g transform=&quot;translate(1850.6,0)&quot; data-mml-node=&quot;mn&quot;&gt;&lt;use xlink:href=&quot;#MJX-6-TEX-N-34&quot; data-c=&quot;34&quot;&gt;&lt;/use&gt;&lt;use transform=&quot;translate(500,0)&quot; xlink:href=&quot;#MJX-6-TEX-N-30&quot; data-c=&quot;30&quot;&gt;&lt;/use&gt;&lt;/g&gt;&lt;/g&gt;&lt;/g&gt;&lt;/svg&gt;&amp;nbsp;ms)&lt;br&gt;Directionally selective" style="rounded=1;whiteSpace=wrap;html=1;" vertex="1" parent="1">
          <mxGeometry x="-335" y="-1840" width="120" height="60" as="geometry" />
        </mxCell>
        <mxCell id="N61VOvYEneSoVH0488H6-209" value="Directionally selective ESTMD" style="rounded=1;whiteSpace=wrap;html=1;" vertex="1" parent="1">
          <mxGeometry x="-110.5" y="-1810" width="120" height="40" as="geometry" />
        </mxCell>
        <mxCell id="N61VOvYEneSoVH0488H6-210" value="" style="endArrow=classic;html=1;rounded=1;exitX=0.5;exitY=1;exitDx=0;exitDy=0;" edge="1" parent="1" source="N61VOvYEneSoVH0488H6-207" target="N61VOvYEneSoVH0488H6-209">
          <mxGeometry width="50" height="50" relative="1" as="geometry">
            <mxPoint x="79.5" y="-1640" as="sourcePoint" />
            <mxPoint x="129.5" y="-1690" as="targetPoint" />
          </mxGeometry>
        </mxCell>
        <mxCell id="N61VOvYEneSoVH0488H6-212" value="HW-R&lt;br&gt;&lt;font color=&quot;#ff0000&quot;&gt;ESTMD&lt;/font&gt;" style="rounded=1;whiteSpace=wrap;html=1;" vertex="1" parent="1">
          <mxGeometry x="-100.5" y="-1740" width="100" height="50" as="geometry" />
        </mxCell>
        <mxCell id="N61VOvYEneSoVH0488H6-215" value="" style="shape=curlyBracket;whiteSpace=wrap;html=1;rounded=1;flipH=1;labelPosition=right;verticalLabelPosition=middle;align=left;verticalAlign=middle;" vertex="1" parent="1">
          <mxGeometry x="22.5" y="-1810" width="20" height="40" as="geometry" />
        </mxCell>
        <mxCell id="N61VOvYEneSoVH0488H6-216" value="Low-pass filtered and then correlated (&lt;svg style=&quot;vertical-align: -0.186ex;&quot; xmlns:xlink=&quot;http://www.w3.org/1999/xlink&quot; viewBox=&quot;0 -677 2850.6 759&quot; role=&quot;img&quot; height=&quot;1.717ex&quot; width=&quot;6.449ex&quot; xmlns=&quot;http://www.w3.org/2000/svg&quot;&gt;&lt;defs&gt;&lt;path d=&quot;M39 284Q18 284 18 294Q18 301 45 338T99 398Q134 425 164 429Q170 431 332 431Q492 431 497 429Q517 424 517 402Q517 388 508 376T485 360Q479 358 389 358T299 356Q298 355 283 274T251 109T233 20Q228 5 215 -4T186 -13Q153 -13 153 20V30L203 192Q214 228 227 272T248 336L254 357Q254 358 208 358Q206 358 197 358T183 359Q105 359 61 295Q56 287 53 286T39 284Z&quot; id=&quot;MJX-6-TEX-I-1D70F&quot;&gt;&lt;/path&gt;&lt;path d=&quot;M56 347Q56 360 70 367H707Q722 359 722 347Q722 336 708 328L390 327H72Q56 332 56 347ZM56 153Q56 168 72 173H708Q722 163 722 153Q722 140 707 133H70Q56 140 56 153Z&quot; id=&quot;MJX-6-TEX-N-3D&quot;&gt;&lt;/path&gt;&lt;path d=&quot;M462 0Q444 3 333 3Q217 3 199 0H190V46H221Q241 46 248 46T265 48T279 53T286 61Q287 63 287 115V165H28V211L179 442Q332 674 334 675Q336 677 355 677H373L379 671V211H471V165H379V114Q379 73 379 66T385 54Q393 47 442 46H471V0H462ZM293 211V545L74 212L183 211H293Z&quot; id=&quot;MJX-6-TEX-N-34&quot;&gt;&lt;/path&gt;&lt;path d=&quot;M96 585Q152 666 249 666Q297 666 345 640T423 548Q460 465 460 320Q460 165 417 83Q397 41 362 16T301 -15T250 -22Q224 -22 198 -16T137 16T82 83Q39 165 39 320Q39 494 96 585ZM321 597Q291 629 250 629Q208 629 178 597Q153 571 145 525T137 333Q137 175 145 125T181 46Q209 16 250 16Q290 16 318 46Q347 76 354 130T362 333Q362 478 354 524T321 597Z&quot; id=&quot;MJX-6-TEX-N-30&quot;&gt;&lt;/path&gt;&lt;/defs&gt;&lt;g transform=&quot;scale(1,-1)&quot; stroke-width=&quot;0&quot; fill=&quot;currentColor&quot; stroke=&quot;currentColor&quot;&gt;&lt;g data-mml-node=&quot;math&quot;&gt;&lt;g data-mml-node=&quot;mi&quot;&gt;&lt;use xlink:href=&quot;#MJX-6-TEX-I-1D70F&quot; data-c=&quot;1D70F&quot;&gt;&lt;/use&gt;&lt;/g&gt;&lt;g transform=&quot;translate(794.8,0)&quot; data-mml-node=&quot;mo&quot;&gt;&lt;use xlink:href=&quot;#MJX-6-TEX-N-3D&quot; data-c=&quot;3D&quot;&gt;&lt;/use&gt;&lt;/g&gt;&lt;g transform=&quot;translate(1850.6,0)&quot; data-mml-node=&quot;mn&quot;&gt;&lt;use xlink:href=&quot;#MJX-6-TEX-N-34&quot; data-c=&quot;34&quot;&gt;&lt;/use&gt;&lt;use transform=&quot;translate(500,0)&quot; xlink:href=&quot;#MJX-6-TEX-N-30&quot; data-c=&quot;30&quot;&gt;&lt;/use&gt;&lt;/g&gt;&lt;/g&gt;&lt;/g&gt;&lt;/svg&gt;&amp;nbsp;ms)" style="text;html=1;strokeColor=none;fillColor=none;align=left;verticalAlign=middle;whiteSpace=wrap;rounded=1;" vertex="1" parent="1">
          <mxGeometry x="49.5" y="-1805" width="150" height="30" as="geometry" />
        </mxCell>
        <mxCell id="N61VOvYEneSoVH0488H6-217" value="&lt;font color=&quot;#0000ff&quot;&gt;LPTC&lt;/font&gt;" style="rounded=1;whiteSpace=wrap;html=1;" vertex="1" parent="1">
          <mxGeometry x="-388" y="-1725" width="100" height="50" as="geometry" />
        </mxCell>
        <mxCell id="N61VOvYEneSoVH0488H6-218" value="&lt;font color=&quot;#ff0000&quot;&gt;LPTC&lt;/font&gt;" style="rounded=1;whiteSpace=wrap;html=1;" vertex="1" parent="1">
          <mxGeometry x="-262" y="-1725" width="100" height="50" as="geometry" />
        </mxCell>
        <mxCell id="N61VOvYEneSoVH0488H6-219" value="" style="endArrow=classic;html=1;rounded=1;exitX=0.5;exitY=1;exitDx=0;exitDy=0;entryX=0.5;entryY=0;entryDx=0;entryDy=0;" edge="1" parent="1" source="N61VOvYEneSoVH0488H6-208" target="N61VOvYEneSoVH0488H6-217">
          <mxGeometry width="50" height="50" relative="1" as="geometry">
            <mxPoint x="-274" y="-1765" as="sourcePoint" />
            <mxPoint x="-94" y="-1765" as="targetPoint" />
            <Array as="points">
              <mxPoint x="-275" y="-1745" />
              <mxPoint x="-338" y="-1745" />
            </Array>
          </mxGeometry>
        </mxCell>
        <mxCell id="N61VOvYEneSoVH0488H6-220" value="" style="endArrow=classic;html=1;rounded=1;exitX=0.5;exitY=1;exitDx=0;exitDy=0;entryX=0.5;entryY=0;entryDx=0;entryDy=0;" edge="1" parent="1" source="N61VOvYEneSoVH0488H6-208" target="N61VOvYEneSoVH0488H6-218">
          <mxGeometry width="50" height="50" relative="1" as="geometry">
            <mxPoint x="-275" y="-1755" as="sourcePoint" />
            <mxPoint x="-225" y="-1805" as="targetPoint" />
            <Array as="points">
              <mxPoint x="-275" y="-1745" />
              <mxPoint x="-212" y="-1745" />
            </Array>
          </mxGeometry>
        </mxCell>
        <mxCell id="N61VOvYEneSoVH0488H6-221" value="&lt;font color=&quot;#ff0000&quot;&gt;TSDN&lt;/font&gt;" style="rounded=1;whiteSpace=wrap;html=1;fontStyle=1" vertex="1" parent="1">
          <mxGeometry x="-110" y="-1468" width="120" height="30" as="geometry" />
        </mxCell>
        <mxCell id="N61VOvYEneSoVH0488H6-222" value="" style="shape=curlyBracket;whiteSpace=wrap;html=1;rounded=1;flipH=1;labelPosition=right;verticalLabelPosition=middle;align=left;verticalAlign=middle;" vertex="1" parent="1">
          <mxGeometry x="10" y="-1656" width="20" height="50" as="geometry" />
        </mxCell>
        <mxCell id="N61VOvYEneSoVH0488H6-223" value="Spatially pool TSDN RF-weighted ESTMDs to obtain STMD" style="text;html=1;strokeColor=none;fillColor=none;align=left;verticalAlign=middle;whiteSpace=wrap;rounded=1;" vertex="1" parent="1">
          <mxGeometry x="37" y="-1651" width="183" height="35" as="geometry" />
        </mxCell>
        <mxCell id="N61VOvYEneSoVH0488H6-224" value="" style="group;rounded=1;" vertex="1" connectable="0" parent="1">
          <mxGeometry x="249.5" y="-1770" width="141" height="50" as="geometry" />
        </mxCell>
        <mxCell id="N61VOvYEneSoVH0488H6-225" value="" style="group;rounded=1;" vertex="1" connectable="0" parent="N61VOvYEneSoVH0488H6-224">
          <mxGeometry width="133" height="50" as="geometry" />
        </mxCell>
        <mxCell id="N61VOvYEneSoVH0488H6-226" value="" style="endArrow=none;html=1;rounded=1;strokeColor=#FF0000;" edge="1" parent="N61VOvYEneSoVH0488H6-225">
          <mxGeometry width="50" height="50" relative="1" as="geometry">
            <mxPoint y="15" as="sourcePoint" />
            <mxPoint x="40" y="15" as="targetPoint" />
          </mxGeometry>
        </mxCell>
        <mxCell id="N61VOvYEneSoVH0488H6-227" value="" style="endArrow=none;html=1;rounded=1;strokeColor=#0000FF;" edge="1" parent="N61VOvYEneSoVH0488H6-225">
          <mxGeometry width="50" height="50" relative="1" as="geometry">
            <mxPoint y="35" as="sourcePoint" />
            <mxPoint x="40" y="35" as="targetPoint" />
          </mxGeometry>
        </mxCell>
        <mxCell id="N61VOvYEneSoVH0488H6-228" value="Right preferred" style="text;html=1;strokeColor=none;fillColor=none;align=left;verticalAlign=middle;whiteSpace=wrap;rounded=1;" vertex="1" parent="N61VOvYEneSoVH0488H6-224">
          <mxGeometry x="45" width="96" height="30" as="geometry" />
        </mxCell>
        <mxCell id="N61VOvYEneSoVH0488H6-229" value="Left preferred" style="text;html=1;strokeColor=none;fillColor=none;align=left;verticalAlign=middle;whiteSpace=wrap;rounded=1;" vertex="1" parent="N61VOvYEneSoVH0488H6-224">
          <mxGeometry x="45" y="20" width="96" height="30" as="geometry" />
        </mxCell>
        <mxCell id="N61VOvYEneSoVH0488H6-231" value="&lt;font color=&quot;#ff0000&quot;&gt;STMD&lt;/font&gt;" style="rounded=1;whiteSpace=wrap;html=1;" vertex="1" parent="1">
          <mxGeometry x="-100.5" y="-1656" width="100" height="50" as="geometry" />
        </mxCell>
        <mxCell id="N61VOvYEneSoVH0488H6-233" value="" style="endArrow=classic;html=1;rounded=1;exitX=0.5;exitY=1;exitDx=0;exitDy=0;entryX=0.5;entryY=0;entryDx=0;entryDy=0;strokeColor=#FF0000;" edge="1" parent="1" source="N61VOvYEneSoVH0488H6-212" target="N61VOvYEneSoVH0488H6-231">
          <mxGeometry width="50" height="50" relative="1" as="geometry">
            <mxPoint x="-122.5" y="-1560" as="sourcePoint" />
            <mxPoint x="-72.5" y="-1610" as="targetPoint" />
          </mxGeometry>
        </mxCell>
        <mxCell id="N61VOvYEneSoVH0488H6-235" value="&lt;font color=&quot;#0000ff&quot;&gt;wide-field&lt;br&gt;STMD&lt;/font&gt;" style="rounded=1;whiteSpace=wrap;html=1;" vertex="1" parent="1">
          <mxGeometry x="78.5" y="-1561" width="100" height="50" as="geometry" />
        </mxCell>
        <mxCell id="N61VOvYEneSoVH0488H6-246" value="" style="group;rounded=1;" vertex="1" connectable="0" parent="1">
          <mxGeometry x="-65" y="-1561" width="30" height="40" as="geometry" />
        </mxCell>
        <mxCell id="N61VOvYEneSoVH0488H6-247" value="" style="ellipse;whiteSpace=wrap;html=1;aspect=fixed;strokeColor=#FF0000;container=0;rounded=1;" vertex="1" parent="N61VOvYEneSoVH0488H6-246">
          <mxGeometry y="10" width="30" height="30" as="geometry" />
        </mxCell>
        <mxCell id="N61VOvYEneSoVH0488H6-248" value="+" style="text;html=1;strokeColor=none;fillColor=none;align=center;verticalAlign=middle;whiteSpace=wrap;rounded=1;container=0;" vertex="1" parent="N61VOvYEneSoVH0488H6-246">
          <mxGeometry x="20" y="10" width="10" height="30" as="geometry" />
        </mxCell>
        <mxCell id="N61VOvYEneSoVH0488H6-250" value="-" style="text;html=1;strokeColor=none;fillColor=none;align=center;verticalAlign=middle;whiteSpace=wrap;rounded=1;container=0;" vertex="1" parent="N61VOvYEneSoVH0488H6-246">
          <mxGeometry y="10" width="10" height="30" as="geometry" />
        </mxCell>
        <mxCell id="N61VOvYEneSoVH0488H6-249" value="+" style="text;html=1;strokeColor=none;fillColor=none;align=center;verticalAlign=middle;whiteSpace=wrap;rounded=1;container=0;" vertex="1" parent="N61VOvYEneSoVH0488H6-246">
          <mxGeometry x="10" width="10" height="30" as="geometry" />
        </mxCell>
        <mxCell id="N61VOvYEneSoVH0488H6-251" value="" style="endArrow=classic;html=1;rounded=1;exitX=0;exitY=0.5;exitDx=0;exitDy=0;entryX=1;entryY=0.5;entryDx=0;entryDy=0;strokeColor=#0000FF;" edge="1" parent="1" source="N61VOvYEneSoVH0488H6-235" target="N61VOvYEneSoVH0488H6-248">
          <mxGeometry width="50" height="50" relative="1" as="geometry">
            <mxPoint x="-153" y="-1541" as="sourcePoint" />
            <mxPoint x="-103" y="-1591" as="targetPoint" />
          </mxGeometry>
        </mxCell>
        <mxCell id="N61VOvYEneSoVH0488H6-252" value="" style="endArrow=classic;html=1;rounded=1;entryX=0.5;entryY=0;entryDx=0;entryDy=0;strokeColor=#FF0000;exitX=0.5;exitY=1;exitDx=0;exitDy=0;" edge="1" parent="1" source="N61VOvYEneSoVH0488H6-231" target="N61VOvYEneSoVH0488H6-247">
          <mxGeometry width="50" height="50" relative="1" as="geometry">
            <mxPoint x="-50" y="-1590" as="sourcePoint" />
            <mxPoint x="19.5" y="-1544" as="targetPoint" />
          </mxGeometry>
        </mxCell>
        <mxCell id="N61VOvYEneSoVH0488H6-254" value="" style="endArrow=classic;html=1;rounded=1;exitX=0.5;exitY=1;exitDx=0;exitDy=0;entryX=0.5;entryY=0;entryDx=0;entryDy=0;strokeColor=#FF0000;" edge="1" parent="1" source="N61VOvYEneSoVH0488H6-247" target="N61VOvYEneSoVH0488H6-221">
          <mxGeometry width="50" height="50" relative="1" as="geometry">
            <mxPoint x="-193" y="-1631" as="sourcePoint" />
            <mxPoint x="-51" y="-1471.0000000000002" as="targetPoint" />
          </mxGeometry>
        </mxCell>
        <mxCell id="N61VOvYEneSoVH0488H6-258" value="" style="endArrow=classic;html=1;rounded=1;exitX=0.5;exitY=1;exitDx=0;exitDy=0;entryX=0.5;entryY=0;entryDx=0;entryDy=0;" edge="1" parent="1" source="N61VOvYEneSoVH0488H6-209" target="N61VOvYEneSoVH0488H6-212">
          <mxGeometry width="50" height="50" relative="1" as="geometry">
            <mxPoint x="70" y="-1630" as="sourcePoint" />
            <mxPoint x="120" y="-1680" as="targetPoint" />
          </mxGeometry>
        </mxCell>
        <mxCell id="N61VOvYEneSoVH0488H6-260" value="" style="group;rounded=1;" vertex="1" connectable="0" parent="1">
          <mxGeometry x="-227" y="-1561" width="30" height="40" as="geometry" />
        </mxCell>
        <mxCell id="N61VOvYEneSoVH0488H6-261" value="" style="ellipse;whiteSpace=wrap;html=1;aspect=fixed;strokeColor=#0000FF;container=0;rounded=1;" vertex="1" parent="N61VOvYEneSoVH0488H6-260">
          <mxGeometry y="10" width="30" height="30" as="geometry" />
        </mxCell>
        <mxCell id="N61VOvYEneSoVH0488H6-264" value="-" style="text;html=1;strokeColor=none;fillColor=none;align=center;verticalAlign=middle;whiteSpace=wrap;rounded=1;container=0;" vertex="1" parent="N61VOvYEneSoVH0488H6-260">
          <mxGeometry y="10" width="10" height="30" as="geometry" />
        </mxCell>
        <mxCell id="N61VOvYEneSoVH0488H6-263" value="+" style="text;html=1;strokeColor=none;fillColor=none;align=center;verticalAlign=middle;whiteSpace=wrap;rounded=1;container=0;" vertex="1" parent="N61VOvYEneSoVH0488H6-260">
          <mxGeometry x="10" width="10" height="30" as="geometry" />
        </mxCell>
        <mxCell id="N61VOvYEneSoVH0488H6-265" value="" style="endArrow=baseDash;html=1;rounded=1;strokeColor=#0000FF;endFill=0;exitX=0.5;exitY=1;exitDx=0;exitDy=0;" edge="1" parent="1" source="N61VOvYEneSoVH0488H6-217">
          <mxGeometry width="50" height="50" relative="1" as="geometry">
            <mxPoint x="-338" y="-1670" as="sourcePoint" />
            <mxPoint x="-230" y="-1536" as="targetPoint" />
            <Array as="points">
              <mxPoint x="-338" y="-1536" />
            </Array>
          </mxGeometry>
        </mxCell>
        <mxCell id="N61VOvYEneSoVH0488H6-266" value="" style="endArrow=classic;html=1;rounded=1;exitX=0.5;exitY=1;exitDx=0;exitDy=0;entryX=0.5;entryY=0;entryDx=0;entryDy=0;strokeColor=#FF0000;" edge="1" parent="1" source="N61VOvYEneSoVH0488H6-218" target="N61VOvYEneSoVH0488H6-261">
          <mxGeometry width="50" height="50" relative="1" as="geometry">
            <mxPoint x="-110" y="-1590" as="sourcePoint" />
            <mxPoint x="-160" y="-1530" as="targetPoint" />
          </mxGeometry>
        </mxCell>
        <mxCell id="N61VOvYEneSoVH0488H6-267" value="" style="endArrow=baseDash;html=1;rounded=1;exitX=1;exitY=0.5;exitDx=0;exitDy=0;strokeColor=#FF0000;endFill=0;" edge="1" parent="1" source="N61VOvYEneSoVH0488H6-261">
          <mxGeometry width="50" height="50" relative="1" as="geometry">
            <mxPoint x="-140" y="-1624" as="sourcePoint" />
            <mxPoint x="-68" y="-1536" as="targetPoint" />
          </mxGeometry>
        </mxCell>
      </root>
    </mxGraphModel>
  </diagram>
</mxfile>
